<?xml version="1.0" standalone="no"?><!DOCTYPE svg PUBLIC "-//W3C//DTD SVG 1.1//EN" "http://www.w3.org/Graphics/SVG/1.1/DTD/svg11.dtd"><svg t="1562920857073" class="icon" viewBox="0 0 1024 1024" version="1.1" xmlns="http://www.w3.org/2000/svg" p-id="35885" xmlns:xlink="http://www.w3.org/1999/xlink" width="200" height="200"><defs><style type="text/css"></style></defs><path d="M 529.76 693.173 v 0 c 2.70615 -1.56182 5.61621 -2.70615 8.00859 -5.09941 c 0.419239 -0.52207 0.726855 -0.935156 1.14521 -1.35263 c 0.52207 -0.623145 1.35263 -0.831445 1.87031 -1.35351 l 280.752 -291.255 c 7.4874 -7.69658 11.2333 -17.6844 11.2333 -27.6706 c 0 -10.4027 -4.15987 -20.9092 -12.2731 -28.7104 c -15.9143 -15.2912 -41.1953 -14.8747 -56.4829 1.03974 l -253.188 262.754 l -249.541 -263.794 c -15.1875 -16.018 -40.4647 -16.7493 -56.4829 -1.56182 c -16.019 15.1883 -16.7493 40.4647 -1.56182 56.4829 l 278.047 293.961 c 12.1676 12.8988 30.8927 15.2921 46.0802 8.00947 c 0.830567 -0.307617 1.56182 -1.03886 2.39239 -1.45283 v 0 Z M 529.76 693.173 Z" p-id="35886"></path></svg>