<svg xmlns="http://www.w3.org/2000/svg" viewBox="0 0 264.31 304.84"><defs><style>.cls-1,.cls-3{font-size:35.63px;font-family:SourceHanSansCN-Normal-GBpc-EUC-H, Source Han Sans CN;}.cls-1,.cls-2,.cls-3{fill:#343434;}.cls-1{letter-spacing:0.7em;}</style></defs><title>资源 3xhdpi</title><g id="图层_2" data-name="图层 2"><g id="图层_1-2" data-name="图层 1"><text class="cls-1" transform="translate(22.02 189.82)">共同开启</text><path class="cls-2" d="M129.37,0a3.85,3.85,0,0,0,.47.08A44.11,44.11,0,0,1,154,8.33a44.5,44.5,0,0,1,15.28,18.84,44,44,0,0,1,3.14,10.9,35.84,35.84,0,0,1,.44,5.48c0,.38,0,.77.08,1.15v6.67a1.71,1.71,0,0,0-.09.3,1.64,1.64,0,0,1-1.65,1.41,1.73,1.73,0,0,1-1.75-1.4,4.47,4.47,0,0,1,0-.73V45.17A41.51,41.51,0,0,0,139.66,5.25a36.37,36.37,0,0,0-8.83-1.56c-1.66-.08-3.32-.12-5-.06a39.21,39.21,0,0,0-7.06,1,2.88,2.88,0,0,1-1.09.09A1.72,1.72,0,0,1,116.26,3a1.71,1.71,0,0,1,1.32-1.76c1-.24,2.07-.45,3.11-.63a38.51,38.51,0,0,1,5.58-.57,1.59,1.59,0,0,0,.35-.08Z"/><path class="cls-2" d="M83.08,46.82c.08-.16.16-.31.23-.47a1.8,1.8,0,0,1,1.93-1.08A1.76,1.76,0,0,1,86.7,47V72.79c0,.33,0,.67,0,1a1.73,1.73,0,0,1-1.38,1.6,1.76,1.76,0,0,1-1.92-.9l-.3-.55Z"/><path class="cls-2" d="M172.91,80.5c0,.28-.07.56-.08.84-.09,1.87-.16,3.73-.25,5.6a1.73,1.73,0,0,1-1.27,1.64,1.75,1.75,0,0,1-1.89-.61,1.93,1.93,0,0,1-.35-1.34c.11-2.17.25-4.33.31-6.5.05-2,0-4,0-6V61.56a3.59,3.59,0,0,1,.05-.73,1.76,1.76,0,0,1,3.25-.41,4.42,4.42,0,0,1,.23.81Z"/><path class="cls-2" d="M128.28,7.35a36.78,36.78,0,0,1,23,8,37.45,37.45,0,0,1,10,11.94,2,2,0,0,1,.31,1.36,1.77,1.77,0,0,1-3.18.74,5.05,5.05,0,0,1-.28-.51,33.94,33.94,0,0,0-21.88-17.07,29.89,29.89,0,0,0-9.12-1,46.06,46.06,0,0,0-5.62.66A34,34,0,0,0,94.87,37,34.83,34.83,0,0,0,94,45.09Q94,57.55,94,70a52.85,52.85,0,0,1-.38,6.65,9.89,9.89,0,0,1-2.37,5.39,18.94,18.94,0,0,1-5.32,4.14,1.73,1.73,0,0,1-2.38-.67,1.76,1.76,0,0,1,.65-2.4c.77-.49,1.57-.94,2.3-1.5a17.75,17.75,0,0,0,2-1.84,6.11,6.11,0,0,0,1.58-3.56,49.79,49.79,0,0,0,.34-6q0-11.52,0-23c0-1.41,0-2.82.07-4.22a35.43,35.43,0,0,1,3.87-14.83A37.46,37.46,0,0,1,116.7,9a32.76,32.76,0,0,1,5.94-1.28c1.13-.15,2.27-.29,3.42-.38C126.79,7.3,127.54,7.35,128.28,7.35Z"/><path class="cls-2" d="M147.64,57.87V45.43a21.86,21.86,0,0,0-.85-6.38,19.86,19.86,0,0,0-15.64-13.5A19.6,19.6,0,0,0,111,35.2c-.08.16-.17.31-.26.46a1.77,1.77,0,0,1-2.33.61,1.75,1.75,0,0,1-.76-2.27,2.78,2.78,0,0,1,.22-.42,22.76,22.76,0,0,1,15.6-11.34,23.15,23.15,0,0,1,25.18,12.13,21.58,21.58,0,0,1,2.33,7.9c.11,1.18.18,2.36.18,3.54q0,12.59,0,25.15c0,.45,0,.89,0,1.33a1.77,1.77,0,0,1-3.54,0c0-.41,0-.81,0-1.22Z"/><path class="cls-2" d="M140.52,57.59c0-4.18,0-8.36,0-12.54a12.54,12.54,0,0,0-9.38-12.24,1.8,1.8,0,0,1-1.48-1.4,1.73,1.73,0,0,1,1.91-2.1,10.6,10.6,0,0,1,2.13.62A15.77,15.77,0,0,1,143.77,42a14.81,14.81,0,0,1,.29,3c0,8.29.06,16.59,0,24.88a11,11,0,0,0,2.12,6.62A25.32,25.32,0,0,0,151.5,82c.89.7,1.81,1.35,2.73,2a8.39,8.39,0,0,0,1,.62q6.67,3.51,13.36,7c.77.4,1.57.74,2.35,1.11a1.77,1.77,0,0,1,1.05,2,1.75,1.75,0,0,1-2.3,1.26,8.63,8.63,0,0,1-1.17-.51q-5.46-2.79-10.91-5.61c-.86-.44-1.7-.93-2.57-1.35a35.29,35.29,0,0,1-7.7-5.39,25.52,25.52,0,0,1-4.41-5,13.91,13.91,0,0,1-2.3-5.63,11.36,11.36,0,0,1-.15-1.74q0-6.6,0-13.19Z"/><path class="cls-2" d="M126.29,60.65V44.87a1.75,1.75,0,0,1,3.49-.21,3.75,3.75,0,0,1,0,.58c0,9.46,0,18.92,0,28.39a51.37,51.37,0,0,1-2.29,15.43,46.27,46.27,0,0,1-12.24,19.7c-.87.84-1.78,1.62-2.67,2.42a1.74,1.74,0,0,1-1.25.49,1.75,1.75,0,0,1-1.29-2.93,5.78,5.78,0,0,1,.63-.57,43.15,43.15,0,0,0,15-27.12,58.91,58.91,0,0,0,.6-8.6Z"/><path class="cls-2" d="M105.91,97.22a1.77,1.77,0,0,1-1.58-2.62,3.15,3.15,0,0,1,.41-.55,28.54,28.54,0,0,0,6.64-13.91,39.28,39.28,0,0,0,.64-7.26c0-9.29,0-18.57,0-27.85a15.74,15.74,0,0,1,6.07-12.68,15.55,15.55,0,0,1,3.52-2.12,1.88,1.88,0,0,1,1.34-.16,1.75,1.75,0,0,1,1.29,1.51,1.69,1.69,0,0,1-.85,1.7,2.86,2.86,0,0,1-.43.21,12.36,12.36,0,0,0-7.22,9.26,13.94,13.94,0,0,0-.18,2.42q0,13.78,0,27.59a42,42,0,0,1-1,9.55,32,32,0,0,1-7.16,14.1A2,2,0,0,1,105.91,97.22Z"/><path class="cls-2" d="M108.66,42.11c-.39,4.15-.21,8.3-.23,12.45,0,6.65.12,13.31,0,20-.18,7.73-2.9,14.41-8.79,19.64A40.42,40.42,0,0,1,88.48,101c-.22.09-.45.19-.69.27a1.76,1.76,0,0,1-1.33-3.24c.44-.22.9-.4,1.35-.6A35.82,35.82,0,0,0,96.67,92a22,22,0,0,0,6.51-8.92,27.12,27.12,0,0,0,1.54-6.47,39.15,39.15,0,0,0,.19-4.59q0-13,0-25.95a29.84,29.84,0,0,1,.22-4.33,1.74,1.74,0,0,1,1.53-1.52,1.72,1.72,0,0,1,1.87,1.14A5.72,5.72,0,0,1,108.66,42.11Z"/><path class="cls-2" d="M139.54,103.6a14.41,14.41,0,0,1,5.89,1.53c4.1,2,8.2,4,12.31,6,1.34.66,2.72,1.25,4.09,1.86a1.89,1.89,0,0,1,1.09,1.09,1.67,1.67,0,0,1-.44,1.85,1.65,1.65,0,0,1-1.91.35c-1-.41-2-.87-3-1.33q-5.64-2.56-11.14-5.41c-.95-.49-1.92-1-2.9-1.41a10.92,10.92,0,0,0-4.24-1,4.9,4.9,0,0,0-3.16,1,8.34,8.34,0,0,0-1.73,1.78,70.34,70.34,0,0,1-21.51,18.93,2.25,2.25,0,0,1-1.18.4,1.75,1.75,0,0,1-1.07-3.17c.14-.1.3-.18.45-.27a68.19,68.19,0,0,0,12-8.64,58.42,58.42,0,0,0,8.48-9.29,11.06,11.06,0,0,1,3.16-3A8.6,8.6,0,0,1,139.54,103.6Z"/><path class="cls-2" d="M137,60.27c0,4.24,0,8.47,0,12.71a63.3,63.3,0,0,1-1.44,13.65,1.77,1.77,0,0,1-2.35,1.4A1.64,1.64,0,0,1,132,86.42a9.69,9.69,0,0,1,.24-1.51,51.21,51.21,0,0,0,1-7c.1-1.78.19-3.56.19-5.34,0-9.16,0-18.32,0-27.48a5.48,5.48,0,0,0-1.34-3.75,5.35,5.35,0,0,0-6.78-1.08l-.45.29a1.76,1.76,0,0,1-2-2.91,8.65,8.65,0,0,1,3.52-1.52,9,9,0,0,1,10.05,5.76,9.58,9.58,0,0,1,.53,3.27Z"/><path class="cls-2" d="M158.4,60.82c0,4.6,0,9.21,0,13.82,0,1.76-.13,3.52-.23,5.28A1.7,1.7,0,0,1,157,81.53a1.67,1.67,0,0,1-1.88-.46,1.77,1.77,0,0,1-.47-1.41c.09-2.19.25-4.37.26-6.56q0-14,0-28a26.68,26.68,0,0,0-5.64-16.62,3.09,3.09,0,0,1-.5-1,1.7,1.7,0,0,1,.85-1.89,1.77,1.77,0,0,1,2.1.29,4.35,4.35,0,0,1,.34.41,29.75,29.75,0,0,1,6.36,18.41v16.1Z"/><path class="cls-2" d="M165.67,61.65c0,4.37,0,8.75,0,13.12,0,2.09-.11,4.17-.19,6.25,0,.88-.14,1.75-.22,2.63a2.5,2.5,0,0,1-.14.67,1.76,1.76,0,0,1-3.41-.55c0-.35.06-.7.09-1,.31-3.34.34-6.69.34-10q0-13.71,0-27.42a38.62,38.62,0,0,0-.38-5.48,1.74,1.74,0,0,1,1.42-2,1.7,1.7,0,0,1,2,1.23,12.09,12.09,0,0,1,.29,2c.1,1.35.2,2.71.21,4.07,0,5.52,0,11,0,16.57Z"/><path class="cls-2" d="M144.85,23.51a1.91,1.91,0,0,1-1.21-.44,26.25,26.25,0,0,0-4.91-2.8,26.84,26.84,0,0,0-31.73,8,1.91,1.91,0,0,1-1.54.88,1.75,1.75,0,0,1-1.56-2.62,2.78,2.78,0,0,1,.31-.43,30.3,30.3,0,0,1,16.91-10.77,28.65,28.65,0,0,1,8.25-.77,30,30,0,0,1,16.32,5.64,1.77,1.77,0,0,1,.84,2A1.73,1.73,0,0,1,144.85,23.51Z"/><path class="cls-2" d="M83.57,38.85c.16-.93.31-1.91.51-2.88A45,45,0,0,1,109.4,4.11a3,3,0,0,1,.95-.29,1.71,1.71,0,0,1,1.76,1.24,1.75,1.75,0,0,1-.78,2c-.19.12-.41.2-.61.3a41.21,41.21,0,0,0-22.27,25.7,38.49,38.49,0,0,0-1.34,6.09,1.76,1.76,0,0,1-3.42.35A5.09,5.09,0,0,1,83.57,38.85Z"/><path class="cls-2" d="M104.27,125a1.89,1.89,0,0,1-1.69-1.24,1.74,1.74,0,0,1,.6-2,4.36,4.36,0,0,1,.59-.35,61.56,61.56,0,0,0,13.48-9.55,50,50,0,0,0,12.35-18l.12-.29a1.75,1.75,0,0,1,2.27-1,1.71,1.71,0,0,1,1,2.3c-.48,1.21-1,2.41-1.56,3.59A54.73,54.73,0,0,1,116,117.62a66.81,66.81,0,0,1-10.72,7A8.89,8.89,0,0,1,104.27,125Z"/><path class="cls-2" d="M120.85,86.11c-.06.29-.12.59-.2.87a39,39,0,0,1-6.11,11.83,46.41,46.41,0,0,1-13,11.54,56.15,56.15,0,0,1-6.72,3.47,1.92,1.92,0,0,1-1.43.16,1.76,1.76,0,0,1-.41-3.19,6,6,0,0,1,.57-.28,50.45,50.45,0,0,0,12.42-7.7,37.89,37.89,0,0,0,9.2-11.55,31.84,31.84,0,0,0,2.19-5.5,1.84,1.84,0,0,1,1.19-1.32A1.78,1.78,0,0,1,120.85,86.11Z"/><path class="cls-2" d="M97.68,56.41c0-3.94,0-7.87,0-11.81a29.87,29.87,0,0,1,2.18-11,1.79,1.79,0,0,1,1.5-1.25,1.76,1.76,0,0,1,1.86,2.36c-.33,1-.7,1.92-1,2.9a25.42,25.42,0,0,0-1,7.31q0,12.3,0,24.62a3.25,3.25,0,0,1-.09.88,1.72,1.72,0,0,1-2,1.23A1.74,1.74,0,0,1,97.68,70c0-.18,0-.35,0-.53Z"/><path class="cls-2" d="M122.68,61.74c0,3.65,0,7.31,0,11,0,2-.12,4-.32,6.08a1.89,1.89,0,0,1-.9,1.58,1.7,1.7,0,0,1-1.86,0,1.78,1.78,0,0,1-.79-1.74c.07-.75.17-1.5.2-2.26.06-1.2.11-2.4.12-3.6V47.46a3.64,3.64,0,0,1,.05-.74,1.74,1.74,0,0,1,1.8-1.47,1.8,1.8,0,0,1,1.69,1.66c0,.16,0,.32,0,.48Z"/><path class="cls-2" d="M170.35,101.25a1.78,1.78,0,0,1-2.15,1.83,2.64,2.64,0,0,1-.4-.12,120.09,120.09,0,0,1-15.42-7.21,55.05,55.05,0,0,1-9.26-6.39c-1-.86-1.89-1.81-2.81-2.73a1.68,1.68,0,0,1-.46-1.66,1.75,1.75,0,0,1,2.84-.94l.19.18a40,40,0,0,0,8.56,6.88,96,96,0,0,0,13.75,7c1.32.56,2.65,1.08,4,1.62A1.75,1.75,0,0,1,170.35,101.25Z"/><path class="cls-2" d="M167.08,108.29a1.75,1.75,0,0,1-2.38,1.63c-1-.35-1.91-.74-2.85-1.13a110.17,110.17,0,0,1-14.51-7,54.66,54.66,0,0,1-8.09-5.67l-.6-.52a1.81,1.81,0,0,1-.2-2.52A1.79,1.79,0,0,1,141,93a46.07,46.07,0,0,0,5.31,4,85.79,85.79,0,0,0,12.58,6.72c2.29,1,4.62,1.92,6.94,2.87A1.8,1.8,0,0,1,167.08,108.29Z"/><path class="cls-2" d="M141.64,112.24a2.14,2.14,0,0,1-.43,1.1,65.85,65.85,0,0,1-4.48,5.9,62.42,62.42,0,0,1-14,12.3,5.22,5.22,0,0,1-.54.33,1.77,1.77,0,0,1-2.29-.61,1.79,1.79,0,0,1,.39-2.34l.31-.21a60.15,60.15,0,0,0,17.66-17.26,2.08,2.08,0,0,1,1.2-1A1.79,1.79,0,0,1,141.64,112.24Z"/><path class="cls-2" d="M100.84,77.63c-.09.46-.2,1.05-.34,1.64a18.24,18.24,0,0,1-6.65,10.28,34.11,34.11,0,0,1-7.56,4.54,1.79,1.79,0,0,1-2.52-1.37A1.76,1.76,0,0,1,84.58,91c.2-.12.41-.21.62-.31a29.16,29.16,0,0,0,7.1-4.46,14.66,14.66,0,0,0,5-8.85,1.78,1.78,0,0,1,1.8-1.66A1.81,1.81,0,0,1,100.84,77.63Z"/><path class="cls-2" d="M146.94,113.74a1.74,1.74,0,0,1,1.55,2.42,4.16,4.16,0,0,1-.28.51,65.15,65.15,0,0,1-13,15.08,2.14,2.14,0,0,1-1.45.67,1.74,1.74,0,0,1-1.62-1.07,1.68,1.68,0,0,1,.36-1.91,5.19,5.19,0,0,1,.55-.49,62.06,62.06,0,0,0,12.12-14.13,3.31,3.31,0,0,1,.64-.76A1.47,1.47,0,0,1,146.94,113.74Z"/><path class="cls-2" d="M101.71,100.73a1.79,1.79,0,0,1-.81,1.5c-1,.68-2,1.37-3.05,2a51,51,0,0,1-7.08,3.56,1.88,1.88,0,0,1-1.43.14,1.71,1.71,0,0,1-1.23-1.51,1.69,1.69,0,0,1,.82-1.66,4.23,4.23,0,0,1,.48-.23,46,46,0,0,0,9.39-5.14,1.79,1.79,0,0,1,2.87,1C101.69,100.52,101.7,100.64,101.71,100.73Z"/><path class="cls-2" d="M149.07,123.52a1.75,1.75,0,0,1,.35-1.06c1.09-1.59,2.18-3.17,3.26-4.76a1.76,1.76,0,0,1,2.45-.58,1.74,1.74,0,0,1,.53,2.45c-1.11,1.68-2.25,3.34-3.4,5a1.71,1.71,0,0,1-2,.65A1.77,1.77,0,0,1,149.07,123.52Z"/><path class="cls-2" d="M103.28,113.7a1.92,1.92,0,0,1,1.66,1.2,1.77,1.77,0,0,1-.49,2,2.11,2.11,0,0,1-.4.26c-1.61.84-3.21,1.68-4.83,2.51a1.71,1.71,0,0,1-1.27.18,1.75,1.75,0,0,1-.47-3.24c.3-.18.63-.31.94-.47,1.3-.68,2.59-1.37,3.89-2A8.78,8.78,0,0,1,103.28,113.7Z"/><text class="cls-3" transform="translate(0 267.49)">麻醉</text><path class="cls-2" d="M76.31,269.54l19.33-18.43c6.66-6.34,14.77-14.11,14.77-22.11,0-9.1-6.56-12.32-13-12.32-6.88,0-12,4-14.43,11.55l-3-1c2.55-8.67,9.33-13.66,17.43-13.66,7.67,0,16.44,4.44,16.44,15.43,0,8.89-8.77,17.33-16.33,24.44L83.09,267h32v3H76.31Z"/><path class="cls-2" d="M120.81,267.54a3.11,3.11,0,1,1,3.11,3.11A3.18,3.18,0,0,1,120.81,267.54Z"/><path class="cls-2" d="M128.32,242.22c0-16.55,13-28.65,28.77-28.65s28.76,12.1,28.76,28.65a28.77,28.77,0,0,1-57.53,0Zm54,0c0-14.77-10.89-25.54-25.21-25.54s-25.21,10.77-25.21,25.54,10.88,25.54,25.21,25.54S182.3,256.88,182.3,242.22Z"/><text class="cls-3" transform="translate(188.4 266.88)">时代</text></g></g></svg>