<svg version="1.1" xmlns="http://www.w3.org/2000/svg" xmlns:xlink="http://www.w3.org/1999/xlink" viewBox="0 0 32 32" width="32" height="32" fill="currentcolor" role="img" aria-label="join_inner icon" style="color: #509ee3;"><path d="M14.923 7.148c-.427.315-.826.66-1.195 1.03a8.865 8.865 0 0 0-3.546-.734C5.35 7.444 1.444 11.28 1.444 16c0 4.72 3.906 8.556 8.738 8.556 1.547 0 2.999-.393 4.258-1.083.26.217.533.423.816.616l.454.31A10.268 10.268 0 0 1 10.182 26C4.559 26 0 21.523 0 16S4.559 6 10.182 6c1.712 0 3.325.415 4.74 1.148zm1.879 0c.434.315.84.66 1.217 1.03a9.172 9.172 0 0 1 3.611-.734c4.921 0 8.9 3.836 8.9 8.556 0 4.72-3.979 8.556-8.9 8.556a9.137 9.137 0 0 1-4.337-1.083c-.265.217-.543.423-.83.616L16 24.4A10.6 10.6 0 0 0 21.63 26C27.357 26 32 21.523 32 16S27.357 6 21.63 6c-1.743 0-3.386.415-4.828 1.148zM16 8c2.418 1.651 4 4.395 4 7.5 0 3.105-1.582 5.849-4 7.5-2.418-1.651-4-4.395-4-7.5 0-3.105 1.582-5.849 4-7.5z"></path></svg>