<svg version="1.1" id="main_layout_svg" class="main_layout_svg" xmlns="http://www.w3.org/2000/svg" xmlns:xlink="http://www.w3.org/1999/xlink" x="0px" y="0px"
             width="725.3px" height="402.7px" viewBox="0 0 725.3 402.7" style="enable-background:new 0 0 725.3 402.7;" xml:space="preserve"
        >
            <polygon class="st0" room-no="304" points="450.4,124.9 492.1,147.1 502.5,141.9 498.6,139.3 509.7,133.4 514.3,136 518.8,134.1 477.8,111.9 450.4,124.9 "/>
            <polygon class="st0" room-no="318" points="260.1,184.9 290.1,200.6 307,191.4 303.7,190.1 314.8,184.3 318.1,185.6 320,184.3 291.4,169.9 260.1,184.9 "/>
            <polygon class="st0" room-no="305" points="420.4,139.9 462.1,162.1 467.3,159.5 463.4,157.5 474.5,151.7 478.4,153.6 490.2,147.7 449.7,126.2 420.4,139.9 "/>
            <polygon class="st0" room-no="306" points="391.7,154.3 433.4,176.4 443.9,170.6 440,168.6 449.7,163.4 454.3,165.4 459.5,162.7 419.1,141.2 391.7,154.3 "/>
            <polygon class="st0" room-no="307" points="361.1,169.3 404.1,190.8 408.7,188.8 404.8,186.9 415.8,181 419.8,183 431.5,177.1 390.4,154.9 361.1,169.3 "/>
            <polygon class="st0" room-no="319" points="262,184.9 290.1,200.6 290.4,200.7 272.5,209.7 268.5,207.7 257.5,213 261.4,214.9 258.1,216.9 228.1,201.9 261.8,184.8 262,184.9 "/>
            <polygon class="st0" room-no="308" points="134.9,314.7 179.9,339.5 174.7,342.1 170.8,340.1 162.3,344.7 165.6,346.6 110.2,374.7 61.9,351.2 134.9,314.7 "/>
            <polygon class="st0" room-no="310" points="128.4,379.9 129.1,400.7 157.7,402.7 181.2,391 145.4,372.7 142.1,374.7 144,376 133.6,381.2 129.7,379.2 128.4,379.9 "/>
            <polygon class="st0" room-no="311" points="145.4,372.7 159,365.5 162.3,367.5 173.4,361.6 170.1,359.7 186.4,352.5 222.3,370.8 181.2,391.6 145.4,372.7 "/>
            <polygon class="st0" room-no="312" points="186.4,352.5 200.1,346 203.4,347.3 214.4,342.1 210.5,340.1 226.8,332.3 263.3,350.5 221.6,370.8 186.4,352.5 "/>
            <polygon class="st0" room-no="313" points="226.8,332.3 262.7,350.5 301.8,331 265.9,312.7 256.2,317.3 260.1,319.2 249,325.1 245.1,323.2 226.8,332.3 "/>
            <polygon class="st0" room-no="314" points="428.9,233.2 472.6,255.3 529.9,226.6 486.9,203.8 446.5,224 449.7,226 438.7,231.9 434.8,229.9 428.9,233.2 "/>
            <polygon class="st0" room-no="315" points="488.9,203.2 532.5,225.3 591.8,195.3 548.2,173.8 542.3,176.4 546.2,178.4 534.5,183.6 531.2,182.3 488.9,203.2 "/>
            <polygon class="st0" room-no="316" points="550.1,172.5 593.8,194.7 630.3,176.4 587.3,153.6 568.4,163.4 572.9,165.4 562.5,170.6 558.6,168.6 550.1,172.5 "/>
            <polygon class="st0" room-no="317" points="589.9,152.3 632.2,175.1 660.9,160.8 617.9,138 607.5,143.8 612,145.8 600.3,151.7 596.4,149.7 589.9,152.3 "/>
            <path room-no="309" class="st0" d="M106.2,376.6l-3.3-2l-11.1,5.9l3.9,2L79.5,391l-13-7.2l2.6-1.3l-20.2-11.1l-2.6,1.3l-13-7.2l29.3-14.3  l48.2,22.8L106.2,376.6L106.2,376.6z M58,401.4l-25.4-1.3l-1.3-1.3L0,382.5l33.9-17l12.4,7.2l-2,1.3l20.2,11.1l2.6-1.3l12.4,7.2  L58,401.4L58,401.4z"/>
            <path room-no="301" class="st0" d="M587.4,22.3c-9.7-0.4-19.1,0.2-27.7,1.7l-5-2.8c-2.7-0.6-15.6,4.6-15.6,4.6l4.7,2.5c-1.6,0.6-3.2,1.3-4.7,2 c-4.6,2.2-9.4,4.1-12.4,6.9l-1.3-0.4l-35.9-15l-0.6-0.3c3.9-3.1,8.5-6,13.9-8.6c21.5-10.4,50.4-14.3,80.3-12.7L587.4,22.3 L587.4,22.3z"/>
            <path room-no="303" class="st0" d="M690.2,32.2c27.6,17.9,39.9,39.9,33.4,58.9l-0.8-0.1l-43.7-9.8l-0.4,0.1c2.1-4.8,2-9.9,0.1-15l4.2-0.8 c0-3.2-4.6-9.8-4.6-9.8l-5.3,1c-3.7-4.6-8.8-9-15.1-13.2L690.2,32.2L690.2,32.2z"/>
            <path room-no="302" class="st0" d="M690.2,32.2l-32.1,11.4l0,0c-3.5-2.3-7.4-4.6-11.6-6.7c-3.7-1.9-7.6-3.5-11.6-5.1l1.2-2.8 c-2-1.8-16.3-5.9-16.3-5.9l-2.4,3.3c-9.9-2.4-20.1-3.8-30.1-4.2l-4.2-22c31.9,1.7,65,9.8,91.8,23.2 C680.5,26.3,685.6,29.2,690.2,32.2L690.2,32.2L690.2,32.2z"/>

            <polygon class="st0" points="372.8,221.4 380.7,226 391.7,220.1 383.9,215.6 372.8,221.4 "/>
            <polygon class="st0" points="382.6,226.6 390.4,231.2 401.5,225.3 393.7,220.8 382.6,226.6 "/>
            <polygon class="st0" points="385.2,214.9 393,219.5 404.1,213.6 396.3,209 385.2,214.9 "/>
            <polygon class="st0" points="395,220.1 402.8,224.7 413.9,218.8 406.1,214.3 395,220.1 "/>
            <polygon class="st0" points="397.6,208.4 405.4,213 416.5,207.1 408.7,202.5 397.6,208.4 "/>
            <polygon class="st0" points="407.4,213.6 415.2,218.2 426.3,212.3 418.5,207.7 407.4,213.6 "/>
            <polygon class="st0" points="417.2,198.6 425,203.2 436.1,197.3 428.2,192.7 417.2,198.6 "/>
            <polygon class="st0" points="426.9,203.8 434.8,208.4 445.8,202.5 438,198 426.9,203.8 "/>
            <polygon class="st0" points="429.5,192.1 437.4,196.7 448.4,190.8 440.6,186.2 429.5,192.1 "/>
            <polygon class="st0" points="439.3,197.3 447.1,201.9 458.2,196 450.4,191.4 439.3,197.3 "/>
            <polygon class="st0" points="441.9,185.6 449.7,190.1 460.8,184.3 453,179.7 441.9,185.6 "/>
            <polygon class="st0" points="451.7,190.8 459.5,195.3 470.6,189.5 462.8,184.9 451.7,190.8 "/>
            <polygon class="st0" points="490.8,162.7 498,166 508.4,160.8 501.9,156.9 490.8,162.7 "/>
            <polygon class="st0" points="499.9,166.7 507.8,171.2 518.2,166 510.4,161.4 499.9,166.7 "/>
            <polygon class="st0" points="502.5,156.2 509.7,160.1 520.8,154.3 513.6,150.4 502.5,156.2 "/>
            <polygon class="st0" points="511.7,160.8 519.5,165.4 530.6,159.5 522.7,154.9 511.7,160.8 "/>
            <polygon class="st0" points="514.9,149.1 522.1,153.6 533.2,147.7 526,143.8 514.9,149.1 "/>
            <polygon class="st0" points="524.7,154.3 532.5,158.8 543.6,153 535.8,148.4 524.7,154.3 "/>
            <polygon class="st0" points="527.3,143.2 535.1,147.7 546.2,141.9 538.4,137.3 527.3,143.2 "/>
            <polygon class="st0" points="539.7,136.7 547.5,141.2 558.6,135.4 550.8,130.8 539.7,136.7 "/>
            <polygon class="st0" points="549.5,141.9 557.3,146.4 568.4,140.6 560.5,136 549.5,141.9 "/>
            <polygon class="st0" points="552.7,130.1 560.5,134.7 571.6,128.8 563.8,124.3 552.7,130.1 "/>
            <polygon class="st0" points="562.5,135.4 570.3,139.9 581.4,134.1 573.6,129.5 562.5,135.4 "/>
            <polygon class="st0" points="454.3,179 462.1,183.6 473.2,177.7 465.4,173.2 454.3,179 "/>
            <polygon class="st0" points="466.7,172.5 474.5,177.1 485.6,171.2 477.8,166.7 466.7,172.5 "/>
            <polygon class="st0" points="464.1,184.3 471.9,188.8 482.3,183 475.2,178.4 464.1,184.3 "/>
            <polygon class="st0" points="285.5,206.4 298.5,213 305.7,209.7 292,203.2 285.5,206.4 "/>
            <polygon class="st0" points="293.3,202.5 306.3,209 313.5,205.8 299.8,199.3 293.3,202.5 "/>
            <polygon class="st0" points="299.8,213.6 312.9,220.1 320,216.9 306.3,210.3 299.8,213.6 "/>
            <polygon class="st0" points="307.7,209.7 320.7,216.2 327.9,213 314.2,206.4 307.7,209.7 "/>
            <polygon class="st0" points="314.8,220.8 327.9,227.3 335,224 321.3,217.5 314.8,220.8 "/>
            <polygon class="st0" points="260.1,285.3 263.3,290.5 280.3,289.2 277.7,284 260.1,285.3 "/>
            <polygon class="st0" points="264,291.2 267.2,296.4 284.2,295.1 281.6,289.9 264,291.2 "/>
            <polygon class="st0" points="241.8,286.6 245.1,291.9 262,290.5 259.4,285.3 241.8,286.6 "/>
            <polygon class="st0" points="245.7,292.5 249,297.7 265.9,296.4 263.3,291.2 245.7,292.5 "/>
            <polygon class="st0" points="181.2,310.8 189,314.7 200.1,308.8 192.9,304.9 181.2,310.8 "/>
            <polygon class="st0" points="189.7,315.3 197.5,319.2 208.6,313.4 201.4,309.5 189.7,315.3 "/>
            <polygon class="st0" points="194.2,304.2 202.1,308.2 213.1,302.3 206,298.4 194.2,304.2 "/>
            <polygon class="st0" points="202.7,308.8 210.5,312.7 221.6,306.8 214.4,302.9 202.7,308.8 "/>
            <polygon class="st0" points="207.3,297.7 215.1,301.6 226.2,295.8 219,291.9 207.3,297.7 "/>
            <polygon class="st0" points="215.7,302.3 223.6,306.2 234.6,300.3 227.5,296.4 215.7,302.3 "/>
            <polygon class="st0" points="322.6,216.9 335.7,223.4 342.8,220.1 329.2,213.6 322.6,216.9 "/>
        </svg>
