<svg version="1.1" xmlns="http://www.w3.org/2000/svg" xmlns:xlink="http://www.w3.org/1999/xlink" viewBox="0 0 32 32" width="32" height="32" fill="currentcolor" role="img" aria-label="join_right_outer icon" style="color: #509ee3; transform: rotate(-180deg);"><path d="M17.077 7.148A10.285 10.285 0 0 1 21.818 6C27.441 6 32 10.477 32 16s-4.559 10-10.182 10c-2.038 0-3.936-.588-5.528-1.6l.454-.31c.283-.194.555-.4.816-.617a8.842 8.842 0 0 0 4.258 1.083c4.832 0 8.738-3.836 8.738-8.556 0-4.72-3.906-8.556-8.738-8.556a8.865 8.865 0 0 0-3.546.733 10.65 10.65 0 0 0-1.195-1.03zM15.71 24.399A10.268 10.268 0 0 1 10.182 26C4.559 26 0 21.523 0 16S4.559 6 10.182 6c1.712 0 3.325.415 4.74 1.148-2.643 1.957-4.241 5.022-4.241 8.352 0 3.468 1.733 6.649 4.575 8.59l.454.31zM16 8c2.418 1.651 4 4.395 4 7.5 0 3.105-1.582 5.849-4 7.5-2.418-1.651-4-4.395-4-7.5 0-3.105 1.582-5.849 4-7.5z"></path></svg>